<svg version="1.1" id="Layer_1" xmlns="http://www.w3.org/2000/svg" xmlns:xlink="http://www.w3.org/1999/xlink" x="0px" y="0px"
	 width="100%" viewBox="0 0 1069 1062" enable-background="new 0 0 1069 1062" xml:space="preserve">
<path fill="#FFFFFF" opacity="1.000000" stroke="none" 
	d="
M489.000000,1.000002 
	C519.687561,1.000000 550.375122,1.000000 581.762878,1.291374 
	C583.846497,2.044170 585.202637,2.788589 586.617432,2.925413 
	C617.839294,5.944748 648.562195,11.560608 678.813538,19.918329 
	C724.011292,32.405373 766.856567,50.415939 807.292664,74.120110 
	C838.688843,92.524925 868.028748,113.742691 894.953918,138.305710 
	C918.249329,159.557343 939.876831,182.308914 959.180725,207.262344 
	C986.211121,242.203430 1008.586670,279.869537 1026.254395,320.379669 
	C1047.581543,369.280579 1061.277100,420.173523 1067.163818,473.195557 
	C1067.643311,477.515442 1069.033081,481.734253 1070.000000,486.000000 
	C1070.000000,516.354248 1070.000000,546.708435 1069.708618,577.762878 
	C1068.955933,579.846252 1068.208008,581.202454 1068.074951,582.616516 
	C1064.424072,621.395935 1056.466309,659.293274 1044.349365,696.280396 
	C1027.698608,747.107178 1003.929749,794.382446 973.013245,838.076660 
	C945.341675,877.184692 912.909607,911.868469 875.933411,942.217957 
	C837.759949,973.550293 795.926270,999.055542 750.571533,1018.707275 
	C700.719116,1040.307861 648.876404,1054.388672 594.804382,1060.166138 
	C590.484680,1060.627686 586.265747,1062.033203 582.000000,1063.000000 
	C551.312439,1063.000000 520.624878,1063.000000 489.237122,1062.708618 
	C486.987488,1061.947266 485.467804,1061.300537 483.884216,1061.033691 
	C458.959290,1056.835938 433.756500,1053.872437 409.152130,1048.275513 
	C360.829773,1037.283325 315.218079,1018.877075 271.948761,994.584106 
	C235.477875,974.107971 201.762329,949.852478 171.174927,921.428101 
	C152.406464,903.987000 134.778015,885.378479 118.628448,865.360657 
	C78.895195,816.110596 48.831913,761.583557 28.471174,701.739990 
	C16.153635,665.536682 7.780204,628.401550 3.787457,590.312744 
	C3.351802,586.156738 1.952399,582.101807 1.000005,578.000000 
	C1.000000,547.645752 1.000000,517.291565 1.291380,486.237122 
	C2.044165,484.153687 2.792077,482.797455 2.925210,481.383301 
	C6.576078,442.603882 14.533894,404.706604 26.650803,367.719482 
	C43.301567,316.892700 67.070358,269.617340 97.986855,225.923172 
	C125.658401,186.815094 158.090530,152.131409 195.066650,121.781876 
	C233.240128,90.449554 275.073792,64.944344 320.428589,45.292721 
	C370.281036,23.692341 422.123657,9.611004 476.195679,3.833843 
	C480.515411,3.372313 484.734253,1.966821 489.000000,1.000002 
M1003.910156,653.359314 
	C1012.992920,619.964111 1018.040283,585.881348 1019.785217,551.402039 
	C1021.422180,519.056396 1018.954651,486.829773 1013.443665,454.898224 
	C1003.932068,399.786499 986.398071,347.458099 958.831604,298.634460 
	C938.583069,262.771637 914.172729,229.959244 885.618896,200.360367 
	C873.278198,187.568008 859.957764,175.647232 846.446228,164.073105 
	C817.608765,139.370621 785.957275,118.684425 751.999390,101.793457 
	C724.973572,88.350571 696.683594,77.962166 667.601562,69.642380 
	C630.581848,59.051773 592.809448,53.170311 554.480103,51.210297 
	C531.546692,50.037567 508.590057,51.225704 485.673218,53.725681 
	C451.918732,57.407928 418.931671,64.402924 386.632874,74.677681 
	C341.740234,88.958725 299.769562,109.230789 261.062775,136.234375 
	C238.894394,151.700043 217.443100,168.100815 198.475433,187.322037 
	C182.952591,203.052383 168.199829,219.629562 154.091431,236.648514 
	C132.649490,262.513947 114.904869,290.965942 100.147331,321.109192 
	C86.430565,349.126617 75.767647,378.378571 67.633530,408.554199 
	C58.100410,443.919678 52.613613,479.906677 51.115967,516.436218 
	C49.913086,545.776001 52.153225,574.975586 56.807568,604.006409 
	C65.829262,660.278137 83.214149,713.680542 111.194069,763.439331 
	C140.455292,815.476746 177.617111,860.987671 223.583313,899.281921 
	C268.840973,936.985657 318.833344,966.278748 374.647308,985.327698 
	C435.645752,1006.146057 498.221619,1016.599792 562.774048,1011.899109 
	C583.649170,1010.379089 604.588928,1008.061584 625.148743,1004.229492 
	C676.239929,994.706787 724.810913,977.702942 770.371643,952.378662 
	C805.931580,932.613159 838.406738,908.624512 868.250549,881.104309 
	C888.982300,861.986633 907.262268,840.594788 924.270813,818.094788 
	C942.307922,794.234253 958.129822,768.977661 971.211975,742.129883 
	C984.953735,713.928284 995.720947,684.526794 1003.910156,653.359314 
z"/>
<path fill="transparent" opacity="1.000000" stroke="none" 
	d="
M488.531342,1.000002 
	C484.734253,1.966821 480.515411,3.372313 476.195679,3.833843 
	C422.123657,9.611004 370.281036,23.692341 320.428589,45.292721 
	C275.073792,64.944344 233.240128,90.449554 195.066650,121.781876 
	C158.090530,152.131409 125.658401,186.815094 97.986855,225.923172 
	C67.070358,269.617340 43.301567,316.892700 26.650803,367.719482 
	C14.533894,404.706604 6.576078,442.603882 2.925210,481.383301 
	C2.792077,482.797455 2.044165,484.153687 1.291380,485.768463 
	C1.000000,324.406006 1.000000,162.812042 1.000000,1.000000 
	C163.354156,1.000000 325.708435,1.000000 488.531342,1.000002 
z"/>
<path fill="transparent" opacity="1.000000" stroke="none" 
	d="
M1070.000000,485.531372 
	C1069.033081,481.734253 1067.643311,477.515442 1067.163818,473.195557 
	C1061.277100,420.173523 1047.581543,369.280579 1026.254395,320.379669 
	C1008.586670,279.869537 986.211121,242.203430 959.180725,207.262344 
	C939.876831,182.308914 918.249329,159.557343 894.953918,138.305710 
	C868.028748,113.742691 838.688843,92.524925 807.292664,74.120110 
	C766.856567,50.415939 724.011292,32.405373 678.813538,19.918329 
	C648.562195,11.560608 617.839294,5.944748 586.617432,2.925413 
	C585.202637,2.788589 583.846497,2.044170 582.231567,1.291374 
	C744.593567,1.000000 907.187073,1.000000 1070.000000,1.000000 
	C1070.000000,162.354156 1070.000000,323.708435 1070.000000,485.531372 
z"/>
<path fill="transparent" opacity="1.000000" stroke="none" 
	d="
M1.000005,578.468628 
	C1.952399,582.101807 3.351802,586.156738 3.787457,590.312744 
	C7.780204,628.401550 16.153635,665.536682 28.471174,701.739990 
	C48.831913,761.583557 78.895195,816.110596 118.628448,865.360657 
	C134.778015,885.378479 152.406464,903.987000 171.174927,921.428101 
	C201.762329,949.852478 235.477875,974.107971 271.948761,994.584106 
	C315.218079,1018.877075 360.829773,1037.283325 409.152130,1048.275513 
	C433.756500,1053.872437 458.959290,1056.835938 483.884216,1061.033691 
	C485.467804,1061.300537 486.987488,1061.947266 488.768433,1062.708618 
	C326.406464,1063.000000 163.812943,1063.000000 1.000000,1063.000000 
	C1.000000,901.645813 1.000000,740.291565 1.000005,578.468628 
z"/>
<path fill="transparent" opacity="1.000000" stroke="none" 
	d="
M582.468628,1063.000000 
	C586.265747,1062.033203 590.484680,1060.627686 594.804382,1060.166138 
	C648.876404,1054.388672 700.719116,1040.307861 750.571533,1018.707275 
	C795.926270,999.055542 837.759949,973.550293 875.933411,942.217957 
	C912.909607,911.868469 945.341675,877.184692 973.013245,838.076660 
	C1003.929749,794.382446 1027.698608,747.107178 1044.349365,696.280396 
	C1056.466309,659.293274 1064.424072,621.395935 1068.074951,582.616516 
	C1068.208008,581.202454 1068.955933,579.846252 1069.708618,578.231567 
	C1070.000000,739.593933 1070.000000,901.187927 1070.000000,1063.000000 
	C907.645813,1063.000000 745.291565,1063.000000 582.468628,1063.000000 
z"/>
<path fill="#FFFFFF" opacity="1.000000" stroke="none" 
	d="
M1003.814087,653.755615 
	C995.720947,684.526794 984.953735,713.928284 971.211975,742.129883 
	C958.129822,768.977661 942.307922,794.234253 924.270813,818.094788 
	C907.262268,840.594788 888.982300,861.986633 868.250549,881.104309 
	C838.406738,908.624512 805.931580,932.613159 770.371643,952.378662 
	C724.810913,977.702942 676.239929,994.706787 625.148743,1004.229492 
	C604.588928,1008.061584 583.649170,1010.379089 562.774048,1011.899109 
	C498.221619,1016.599792 435.645752,1006.146057 374.647308,985.327698 
	C318.833344,966.278748 268.840973,936.985657 223.583313,899.281921 
	C177.617111,860.987671 140.455292,815.476746 111.194069,763.439331 
	C83.214149,713.680542 65.829262,660.278137 56.807568,604.006409 
	C52.153225,574.975586 49.913086,545.776001 51.115967,516.436218 
	C52.613613,479.906677 58.100410,443.919678 67.633530,408.554199 
	C75.767647,378.378571 86.430565,349.126617 100.147331,321.109192 
	C114.904869,290.965942 132.649490,262.513947 154.091431,236.648514 
	C168.199829,219.629562 182.952591,203.052383 198.475433,187.322037 
	C217.443100,168.100815 238.894394,151.700043 261.062775,136.234375 
	C299.769562,109.230789 341.740234,88.958725 386.632874,74.677681 
	C418.931671,64.402924 451.918732,57.407928 485.673218,53.725681 
	C508.590057,51.225704 531.546692,50.037567 554.480103,51.210297 
	C592.809448,53.170311 630.581848,59.051773 667.601562,69.642380 
	C696.683594,77.962166 724.973572,88.350571 751.999390,101.793457 
	C785.957275,118.684425 817.608765,139.370621 846.446228,164.073105 
	C859.957764,175.647232 873.278198,187.568008 885.618896,200.360367 
	C914.172729,229.959244 938.583069,262.771637 958.831604,298.634460 
	C986.398071,347.458099 1003.932068,399.786499 1013.443665,454.898224 
	C1018.954651,486.829773 1021.422180,519.056396 1019.785217,551.402039 
	C1018.040283,585.881348 1012.992920,619.964111 1003.814087,653.755615 
M822.312561,777.814514 
	C836.768616,768.334900 849.346924,756.747192 860.013184,743.202515 
	C869.198792,731.538147 878.296387,719.506287 880.795532,704.438904 
	C882.244934,695.699585 882.070801,686.616333 881.908936,677.700867 
	C881.619080,661.736450 874.073303,648.910522 862.562439,638.567078 
	C850.799255,627.996887 836.496826,623.672180 820.716309,623.972107 
	C812.386475,624.130493 804.032959,623.662170 795.724243,624.110046 
	C789.115112,624.466309 782.339966,625.023743 776.023560,626.834717 
	C763.419495,630.448608 751.052002,634.903870 738.643799,639.177063 
	C733.202393,641.051025 731.830933,640.479492 731.154419,634.612122 
	C730.506958,628.997498 730.745300,623.239014 729.674072,617.722351 
	C725.466370,596.053101 719.556519,574.969238 706.968384,556.352905 
	C703.159424,550.719849 703.505066,549.177124 709.504272,546.525513 
	C721.493347,541.226440 732.217773,534.047546 742.335693,525.805176 
	C762.496216,509.381561 777.943726,489.590912 787.058044,465.002716 
	C792.473267,450.393829 792.467712,435.278229 791.861206,420.140625 
	C791.597839,413.566437 790.561707,406.837646 788.635254,400.559998 
	C785.863464,391.527740 782.051025,382.805603 778.485901,374.031097 
	C777.288208,371.083405 777.326172,369.157227 780.464233,367.483002 
	C783.378113,365.928345 786.177368,363.989960 788.642883,361.789978 
	C810.165405,342.585968 826.196838,320.190216 830.676819,290.774170 
	C833.809143,270.207306 831.677429,250.216660 824.528442,230.919632 
	C814.961182,205.094879 797.185669,185.965332 773.767517,171.861176 
	C751.387024,158.382004 726.723450,152.788315 701.344849,156.671082 
	C667.196655,161.895584 639.628967,179.464401 619.749451,208.322342 
	C612.664307,218.607452 607.943665,229.883621 604.449158,241.755386 
	C603.719849,244.232986 602.741760,245.296021 599.834717,244.600571 
	C582.875977,240.543594 565.898071,237.019089 548.429626,235.187042 
	C533.895935,233.662796 519.854370,235.461975 505.755554,237.087540 
	C493.927979,238.451233 482.311951,241.763794 470.661163,244.467331 
	C467.773163,245.137482 466.458893,244.696518 465.517853,241.782608 
	C463.527588,235.619644 461.679077,229.332397 458.889038,223.520157 
	C448.300446,201.461533 432.522766,184.157333 411.064056,172.045074 
	C397.150818,164.191803 382.751831,157.468002 366.729980,156.224487 
	C336.430267,153.872818 308.631531,161.174149 284.206116,179.877228 
	C256.154572,201.356888 240.663467,229.738098 238.150299,264.892914 
	C236.561539,287.117004 240.511017,308.362915 252.535553,327.575134 
	C262.324707,343.215820 273.391754,357.758331 289.529541,367.472778 
	C292.914062,369.510193 292.668243,371.526855 291.276459,374.458679 
	C285.915283,385.751984 281.320953,397.264069 279.402374,409.777466 
	C276.927124,425.921478 276.707306,442.061279 280.766083,457.823395 
	C286.157440,478.760559 297.664520,496.535126 312.581879,511.942322 
	C326.325684,526.137451 341.737610,538.226624 360.036804,546.291748 
	C366.633453,549.199158 366.381500,550.280273 362.884033,556.825256 
	C357.643707,566.631836 352.241364,576.474915 348.331757,586.839539 
	C342.925537,601.171631 340.240387,616.237976 339.069763,631.608459 
	C338.300781,641.704895 337.636871,641.248230 328.097015,637.960205 
	C314.786316,633.372559 301.348511,628.495605 287.555664,626.152222 
	C274.070679,623.861145 260.073273,624.226562 246.297775,624.170410 
	C240.263184,624.145813 233.968567,625.202087 228.224808,627.086670 
	C198.713226,636.769592 186.359268,661.333069 187.243134,690.120728 
	C187.692917,704.770142 192.364410,718.017212 200.553604,730.281189 
	C211.392517,746.513367 224.375488,760.711182 239.866302,772.416870 
	C261.690887,788.908691 285.872437,801.072754 311.915894,809.509094 
	C313.662994,810.075073 315.270721,811.071289 316.943237,811.867432 
	C314.513519,812.602600 312.460907,811.813721 310.455231,811.919006 
	C304.566559,812.228210 298.224030,811.648987 292.913391,813.666260 
	C280.255402,818.474426 274.167725,830.474792 276.253326,845.456848 
	C277.737671,856.119873 283.206879,864.984802 293.607880,868.716980 
	C302.310638,871.839905 311.543152,871.360779 318.891479,864.494873 
	C322.121948,861.476624 324.335571,857.397583 327.308167,854.065369 
	C329.097809,852.059326 331.199677,849.721130 333.607452,848.977844 
	C347.740967,844.615356 362.002106,840.665222 376.229370,836.608215 
	C379.700409,835.618408 381.878815,836.796326 381.880829,840.606201 
	C381.881958,842.740906 381.694244,844.945984 381.140411,846.997559 
	C379.451965,853.252197 377.926331,859.597168 375.572998,865.607666 
	C374.250519,868.985291 372.071899,872.816956 369.152405,874.639709 
	C358.095673,881.543152 353.574249,890.735596 355.843719,903.723633 
	C357.973663,915.913147 368.846832,925.775635 382.410370,926.853271 
	C393.240723,927.713867 406.923767,918.485352 409.208160,907.634460 
	C410.332123,902.295715 409.136475,896.462524 408.943085,890.854736 
	C408.829681,887.567139 407.683044,883.971558 408.647339,881.059631 
	C410.888092,874.293030 413.980804,867.788391 417.019562,861.314331 
	C418.671783,857.794312 420.524475,857.846191 422.728546,861.303467 
	C425.589935,865.791748 428.055939,870.538940 431.028412,874.948059 
	C436.578949,883.181213 439.552460,892.160950 439.853882,902.074768 
	C440.264832,915.591064 449.838593,923.047302 462.113464,924.893494 
	C475.495667,926.906372 491.527283,917.278015 493.441376,904.943237 
	C495.832092,889.536865 493.710144,877.686035 475.744080,871.859558 
	C473.937714,871.273743 471.742645,870.210815 470.872864,868.707092 
	C467.380188,862.668701 464.288513,856.394348 461.187775,850.138184 
	C460.765167,849.285522 461.129547,848.042786 461.129547,846.658081 
	C468.150848,846.641663 472.728302,851.342285 478.237885,853.779785 
	C484.171265,856.404785 490.101562,858.709351 496.944672,857.201111 
	C509.666626,854.397339 518.663635,844.337830 518.108276,829.267517 
	C517.521912,813.356995 506.142914,803.355225 490.397461,805.549011 
	C486.541504,806.086243 481.830963,807.010742 478.755249,805.394287 
	C469.816772,800.696350 460.531738,795.880676 453.121552,789.186401 
	C420.900055,760.077515 400.673706,724.379700 395.678406,680.614319 
	C393.895996,664.998230 395.018158,649.577209 398.714996,634.604004 
	C403.947601,613.411011 413.533325,594.104980 427.609711,577.087341 
	C432.039062,571.732422 436.485199,570.412415 442.797974,572.526733 
	C470.076263,581.662964 498.412109,584.062378 526.889160,584.871521 
	C540.345947,585.253906 553.888550,584.869263 567.304810,583.766968 
	C579.696594,582.748840 592.034363,580.647339 604.276855,578.380188 
	C613.250061,576.718506 622.059509,574.123535 630.883667,571.729614 
	C634.798584,570.667480 637.829956,571.649414 640.153320,574.748230 
	C645.138306,581.397156 650.643066,587.764099 654.794312,594.909302 
	C665.671265,613.630493 672.890137,633.523926 674.449768,655.513062 
	C675.570740,671.318420 675.158325,686.859375 670.488586,701.879150 
	C666.609009,714.357788 661.891052,726.711975 656.178040,738.456665 
	C643.546692,764.423828 625.303223,785.734741 600.437317,800.929138 
	C594.455383,804.584351 588.392700,807.540100 580.786438,805.909241 
	C563.134949,802.124634 551.101562,815.526489 551.817871,831.050110 
	C552.656311,849.221313 567.015015,861.048218 584.535461,856.270813 
	C589.409973,854.941589 593.872314,852.108093 598.533508,849.986206 
	C600.793945,848.957214 603.006348,847.744507 605.366089,847.029846 
	C609.059326,845.911438 610.175598,847.554199 608.558838,850.868164 
	C606.080811,855.947876 603.764709,861.174561 600.641541,865.845093 
	C598.872253,868.491028 595.897522,870.687073 592.992676,872.139709 
	C587.746826,874.762817 582.071899,876.771729 579.357178,882.446655 
	C571.497925,898.875671 575.622742,916.735901 595.336670,923.719299 
	C609.080566,928.587769 629.351135,921.075989 630.333191,902.314331 
	C630.688660,895.523010 632.501099,888.492310 635.173523,882.220581 
	C638.278931,874.932678 642.980408,868.310486 647.142578,861.492981 
	C649.510620,857.614319 651.386230,857.762390 653.353027,861.989502 
	C655.809082,867.268127 658.571289,872.506653 660.138733,878.062256 
	C661.295776,882.163452 661.823853,887.021851 660.778259,891.063232 
	C656.494812,907.619568 664.342407,921.780518 680.940002,926.158630 
	C693.273865,929.412109 707.722229,922.081055 712.634460,908.671509 
	C717.592163,895.137756 715.189941,883.894714 702.188843,875.753296 
	C698.080200,873.180481 695.482849,869.932495 694.220703,865.402405 
	C693.150574,861.561462 692.014771,857.738342 690.983398,853.887146 
	C689.955627,850.049622 688.535400,846.233459 688.162415,842.324402 
	C687.623352,836.675842 689.584351,835.384460 694.976013,837.006165 
	C704.851501,839.976562 714.614258,843.414185 724.626709,845.809631 
	C733.675537,847.974426 741.557678,850.184021 746.738892,859.516907 
	C753.479126,871.658264 769.253601,872.865540 778.907043,867.629517 
	C791.865173,860.601074 797.196045,845.095642 792.775146,830.887573 
	C787.974976,815.460876 774.406494,808.968079 757.803040,812.132568 
	C756.342285,812.411011 754.882935,812.697083 753.422974,812.979614 
	C753.243835,812.435852 753.064758,811.892090 752.885681,811.348328 
	C777.208374,803.072327 800.847290,793.425049 822.312561,777.814514 
z"/>
<path fill="transparent" opacity="1.000000" stroke="none" 
	d="
M822.004883,777.999634 
	C800.847290,793.425049 777.208374,803.072327 752.885681,811.348328 
	C753.064758,811.892090 753.243835,812.435852 753.422974,812.979614 
	C754.882935,812.697083 756.342285,812.411011 757.803040,812.132568 
	C774.406494,808.968079 787.974976,815.460876 792.775146,830.887573 
	C797.196045,845.095642 791.865173,860.601074 778.907043,867.629517 
	C769.253601,872.865540 753.479126,871.658264 746.738892,859.516907 
	C741.557678,850.184021 733.675537,847.974426 724.626709,845.809631 
	C714.614258,843.414185 704.851501,839.976562 694.976013,837.006165 
	C689.584351,835.384460 687.623352,836.675842 688.162415,842.324402 
	C688.535400,846.233459 689.955627,850.049622 690.983398,853.887146 
	C692.014771,857.738342 693.150574,861.561462 694.220703,865.402405 
	C695.482849,869.932495 698.080200,873.180481 702.188843,875.753296 
	C715.189941,883.894714 717.592163,895.137756 712.634460,908.671509 
	C707.722229,922.081055 693.273865,929.412109 680.940002,926.158630 
	C664.342407,921.780518 656.494812,907.619568 660.778259,891.063232 
	C661.823853,887.021851 661.295776,882.163452 660.138733,878.062256 
	C658.571289,872.506653 655.809082,867.268127 653.353027,861.989502 
	C651.386230,857.762390 649.510620,857.614319 647.142578,861.492981 
	C642.980408,868.310486 638.278931,874.932678 635.173523,882.220581 
	C632.501099,888.492310 630.688660,895.523010 630.333191,902.314331 
	C629.351135,921.075989 609.080566,928.587769 595.336670,923.719299 
	C575.622742,916.735901 571.497925,898.875671 579.357178,882.446655 
	C582.071899,876.771729 587.746826,874.762817 592.992676,872.139709 
	C595.897522,870.687073 598.872253,868.491028 600.641541,865.845093 
	C603.764709,861.174561 606.080811,855.947876 608.558838,850.868164 
	C610.175598,847.554199 609.059326,845.911438 605.366089,847.029846 
	C603.006348,847.744507 600.793945,848.957214 598.533508,849.986206 
	C593.872314,852.108093 589.409973,854.941589 584.535461,856.270813 
	C567.015015,861.048218 552.656311,849.221313 551.817871,831.050110 
	C551.101562,815.526489 563.134949,802.124634 580.786438,805.909241 
	C588.392700,807.540100 594.455383,804.584351 600.437317,800.929138 
	C625.303223,785.734741 643.546692,764.423828 656.178040,738.456665 
	C661.891052,726.711975 666.609009,714.357788 670.488586,701.879150 
	C675.158325,686.859375 675.570740,671.318420 674.449768,655.513062 
	C672.890137,633.523926 665.671265,613.630493 654.794312,594.909302 
	C650.643066,587.764099 645.138306,581.397156 640.153320,574.748230 
	C637.829956,571.649414 634.798584,570.667480 630.883667,571.729614 
	C622.059509,574.123535 613.250061,576.718506 604.276855,578.380188 
	C592.034363,580.647339 579.696594,582.748840 567.304810,583.766968 
	C553.888550,584.869263 540.345947,585.253906 526.889160,584.871521 
	C498.412109,584.062378 470.076263,581.662964 442.797974,572.526733 
	C436.485199,570.412415 432.039062,571.732422 427.609711,577.087341 
	C413.533325,594.104980 403.947601,613.411011 398.714996,634.604004 
	C395.018158,649.577209 393.895996,664.998230 395.678406,680.614319 
	C400.673706,724.379700 420.900055,760.077515 453.121552,789.186401 
	C460.531738,795.880676 469.816772,800.696350 478.755249,805.394287 
	C481.830963,807.010742 486.541504,806.086243 490.397461,805.549011 
	C506.142914,803.355225 517.521912,813.356995 518.108276,829.267517 
	C518.663635,844.337830 509.666626,854.397339 496.944672,857.201111 
	C490.101562,858.709351 484.171265,856.404785 478.237885,853.779785 
	C472.728302,851.342285 468.150848,846.641663 461.129547,846.658081 
	C461.129547,848.042786 460.765167,849.285522 461.187775,850.138184 
	C464.288513,856.394348 467.380188,862.668701 470.872864,868.707092 
	C471.742645,870.210815 473.937714,871.273743 475.744080,871.859558 
	C493.710144,877.686035 495.832092,889.536865 493.441376,904.943237 
	C491.527283,917.278015 475.495667,926.906372 462.113464,924.893494 
	C449.838593,923.047302 440.264832,915.591064 439.853882,902.074768 
	C439.552460,892.160950 436.578949,883.181213 431.028412,874.948059 
	C428.055939,870.538940 425.589935,865.791748 422.728546,861.303467 
	C420.524475,857.846191 418.671783,857.794312 417.019562,861.314331 
	C413.980804,867.788391 410.888092,874.293030 408.647339,881.059631 
	C407.683044,883.971558 408.829681,887.567139 408.943085,890.854736 
	C409.136475,896.462524 410.332123,902.295715 409.208160,907.634460 
	C406.923767,918.485352 393.240723,927.713867 382.410370,926.853271 
	C368.846832,925.775635 357.973663,915.913147 355.843719,903.723633 
	C353.574249,890.735596 358.095673,881.543152 369.152405,874.639709 
	C372.071899,872.816956 374.250519,868.985291 375.572998,865.607666 
	C377.926331,859.597168 379.451965,853.252197 381.140411,846.997559 
	C381.694244,844.945984 381.881958,842.740906 381.880829,840.606201 
	C381.878815,836.796326 379.700409,835.618408 376.229370,836.608215 
	C362.002106,840.665222 347.740967,844.615356 333.607452,848.977844 
	C331.199677,849.721130 329.097809,852.059326 327.308167,854.065369 
	C324.335571,857.397583 322.121948,861.476624 318.891479,864.494873 
	C311.543152,871.360779 302.310638,871.839905 293.607880,868.716980 
	C283.206879,864.984802 277.737671,856.119873 276.253326,845.456848 
	C274.167725,830.474792 280.255402,818.474426 292.913391,813.666260 
	C298.224030,811.648987 304.566559,812.228210 310.455231,811.919006 
	C312.460907,811.813721 314.513519,812.602600 316.943237,811.867432 
	C315.270721,811.071289 313.662994,810.075073 311.915894,809.509094 
	C285.872437,801.072754 261.690887,788.908691 239.866302,772.416870 
	C224.375488,760.711182 211.392517,746.513367 200.553604,730.281189 
	C192.364410,718.017212 187.692917,704.770142 187.243134,690.120728 
	C186.359268,661.333069 198.713226,636.769592 228.224808,627.086670 
	C233.968567,625.202087 240.263184,624.145813 246.297775,624.170410 
	C260.073273,624.226562 274.070679,623.861145 287.555664,626.152222 
	C301.348511,628.495605 314.786316,633.372559 328.097015,637.960205 
	C337.636871,641.248230 338.300781,641.704895 339.069763,631.608459 
	C340.240387,616.237976 342.925537,601.171631 348.331757,586.839539 
	C352.241364,576.474915 357.643707,566.631836 362.884033,556.825256 
	C366.381500,550.280273 366.633453,549.199158 360.036804,546.291748 
	C341.737610,538.226624 326.325684,526.137451 312.581879,511.942322 
	C297.664520,496.535126 286.157440,478.760559 280.766083,457.823395 
	C276.707306,442.061279 276.927124,425.921478 279.402374,409.777466 
	C281.320953,397.264069 285.915283,385.751984 291.276459,374.458679 
	C292.668243,371.526855 292.914062,369.510193 289.529541,367.472778 
	C273.391754,357.758331 262.324707,343.215820 252.535553,327.575134 
	C240.511017,308.362915 236.561539,287.117004 238.150299,264.892914 
	C240.663467,229.738098 256.154572,201.356888 284.206116,179.877228 
	C308.631531,161.174149 336.430267,153.872818 366.729980,156.224487 
	C382.751831,157.468002 397.150818,164.191803 411.064056,172.045074 
	C432.522766,184.157333 448.300446,201.461533 458.889038,223.520157 
	C461.679077,229.332397 463.527588,235.619644 465.517853,241.782608 
	C466.458893,244.696518 467.773163,245.137482 470.661163,244.467331 
	C482.311951,241.763794 493.927979,238.451233 505.755554,237.087540 
	C519.854370,235.461975 533.895935,233.662796 548.429626,235.187042 
	C565.898071,237.019089 582.875977,240.543594 599.834717,244.600571 
	C602.741760,245.296021 603.719849,244.232986 604.449158,241.755386 
	C607.943665,229.883621 612.664307,218.607452 619.749451,208.322342 
	C639.628967,179.464401 667.196655,161.895584 701.344849,156.671082 
	C726.723450,152.788315 751.387024,158.382004 773.767517,171.861176 
	C797.185669,185.965332 814.961182,205.094879 824.528442,230.919632 
	C831.677429,250.216660 833.809143,270.207306 830.676819,290.774170 
	C826.196838,320.190216 810.165405,342.585968 788.642883,361.789978 
	C786.177368,363.989960 783.378113,365.928345 780.464233,367.483002 
	C777.326172,369.157227 777.288208,371.083405 778.485901,374.031097 
	C782.051025,382.805603 785.863464,391.527740 788.635254,400.559998 
	C790.561707,406.837646 791.597839,413.566437 791.861206,420.140625 
	C792.467712,435.278229 792.473267,450.393829 787.058044,465.002716 
	C777.943726,489.590912 762.496216,509.381561 742.335693,525.805176 
	C732.217773,534.047546 721.493347,541.226440 709.504272,546.525513 
	C703.505066,549.177124 703.159424,550.719849 706.968384,556.352905 
	C719.556519,574.969238 725.466370,596.053101 729.674072,617.722351 
	C730.745300,623.239014 730.506958,628.997498 731.154419,634.612122 
	C731.830933,640.479492 733.202393,641.051025 738.643799,639.177063 
	C751.052002,634.903870 763.419495,630.448608 776.023560,626.834717 
	C782.339966,625.023743 789.115112,624.466309 795.724243,624.110046 
	C804.032959,623.662170 812.386475,624.130493 820.716309,623.972107 
	C836.496826,623.672180 850.799255,627.996887 862.562439,638.567078 
	C874.073303,648.910522 881.619080,661.736450 881.908936,677.700867 
	C882.070801,686.616333 882.244934,695.699585 880.795532,704.438904 
	C878.296387,719.506287 869.198792,731.538147 860.013184,743.202515 
	C849.346924,756.747192 836.768616,768.334900 822.004883,777.999634 
M737.466797,451.938202 
	C741.639954,443.420990 744.205688,434.225342 743.565125,424.951233 
	C742.526001,409.906555 736.401672,396.332153 727.821960,384.005493 
	C726.493958,382.097534 723.784668,380.607788 721.447083,380.055634 
	C716.128906,378.799438 710.579651,378.539490 705.239136,377.356384 
	C682.852417,372.396667 664.292297,360.421570 647.086731,345.757782 
	C635.446167,335.836914 623.878601,325.626129 611.173340,317.213898 
	C597.322693,308.043396 582.077271,301.004791 565.879700,296.628510 
	C554.851868,293.649017 544.072021,288.765625 532.298218,290.119049 
	C525.740723,290.872864 519.235474,292.457672 512.837830,294.160339 
	C484.962311,301.579010 459.710358,313.893494 437.708252,332.986572 
	C424.796967,344.190796 411.124329,354.637512 397.046814,364.340729 
	C385.458069,372.328522 372.060547,376.626007 357.901367,378.123413 
	C349.847198,378.975220 342.079315,380.271118 338.498108,389.291382 
	C336.477997,394.379608 332.999817,398.955933 331.434418,404.142029 
	C329.100952,411.872559 326.025879,420.057983 326.529938,427.838440 
	C328.014404,450.751251 339.133972,469.264099 356.730011,483.749023 
	C372.664978,496.866486 390.392517,507.121552 409.968811,513.689331 
	C425.563934,518.921448 441.271698,524.230347 457.334137,527.543335 
	C474.040649,530.989136 491.224487,532.150269 508.214752,534.183960 
	C531.478455,536.968567 554.685486,535.294189 577.868469,533.005432 
	C599.950439,530.825378 621.517578,526.097412 642.754028,519.745789 
	C663.612854,513.507202 683.456482,504.948151 701.488525,492.716888 
	C716.669006,482.419800 729.932129,470.142609 737.466797,451.938202 
M406.616699,233.876694 
	C401.504150,228.707352 396.773346,223.077774 391.204437,218.458649 
	C376.925812,206.615250 359.798492,203.606598 342.253998,206.599792 
	C321.397217,210.158081 305.213348,221.637131 294.961914,240.659668 
	C289.010498,251.703094 285.059296,263.508270 286.512390,275.995605 
	C288.636871,294.252472 296.515350,309.944580 310.683319,322.214294 
	C329.488007,338.499451 351.300842,342.373169 374.082733,334.685791 
	C390.222351,329.239716 403.189880,317.936951 411.122803,302.146820 
	C422.828247,278.847687 422.505127,256.163910 406.616699,233.876694 
M684.733337,214.170074 
	C673.372314,221.510803 663.857117,230.630066 657.552368,242.754410 
	C652.707581,252.071060 649.780151,262.377808 650.571228,272.511993 
	C652.194214,293.304840 660.590759,311.049927 677.700684,324.387482 
	C692.732056,336.104767 709.584412,340.517456 727.757568,337.415894 
	C749.143188,333.766113 765.021729,321.228180 775.357239,302.092407 
	C780.886047,291.856232 784.454224,280.779602 783.647461,269.127991 
	C782.813660,257.085083 778.624207,245.913116 772.015503,235.570587 
	C753.927917,207.263733 714.882629,197.135559 684.733337,214.170074 
M277.674652,734.838623 
	C303.945404,751.980286 332.987030,761.638794 365.071594,767.845642 
	C363.567932,764.523071 362.868530,762.568054 361.851868,760.794922 
	C352.238861,744.029297 346.479004,725.825867 342.080170,707.164307 
	C341.101624,703.012939 339.420593,700.245361 335.391296,698.724060 
	C319.523773,692.733215 303.840851,686.217407 287.812744,680.700256 
	C276.538849,676.819580 265.010468,673.290771 252.744919,674.004639 
	C246.587280,674.362915 242.289093,677.399414 240.022964,682.902832 
	C236.758438,690.830872 239.772079,697.852478 244.091141,704.432495 
	C252.502426,717.246887 264.330963,726.357544 277.674652,734.838623 
M825.514038,704.971924 
	C827.356812,700.401611 829.602051,695.946167 830.947693,691.233887 
	C832.958984,684.190002 827.205872,675.295776 819.896484,674.363342 
	C815.165283,673.759766 810.130554,673.661804 805.482544,674.591003 
	C780.379639,679.609375 756.758972,689.120422 733.469238,699.441284 
	C731.264526,700.418274 728.983215,703.217102 728.413452,705.575134 
	C723.588074,725.543152 717.533569,744.997620 706.955872,762.797974 
	C706.278992,763.937073 706.206421,765.435303 705.416687,768.407654 
	C718.432007,764.919739 730.177002,762.124756 741.699951,758.603455 
	C760.108887,752.977905 777.346436,744.683838 793.479248,734.175171 
	C805.525818,726.328247 816.964355,717.763916 825.514038,704.971924 
z"/>
<path fill="#FFFFFF" opacity="1.000000" stroke="none" 
	d="
M737.309814,452.285278 
	C729.932129,470.142609 716.669006,482.419800 701.488525,492.716888 
	C683.456482,504.948151 663.612854,513.507202 642.754028,519.745789 
	C621.517578,526.097412 599.950439,530.825378 577.868469,533.005432 
	C554.685486,535.294189 531.478455,536.968567 508.214752,534.183960 
	C491.224487,532.150269 474.040649,530.989136 457.334137,527.543335 
	C441.271698,524.230347 425.563934,518.921448 409.968811,513.689331 
	C390.392517,507.121552 372.664978,496.866486 356.730011,483.749023 
	C339.133972,469.264099 328.014404,450.751251 326.529938,427.838440 
	C326.025879,420.057983 329.100952,411.872559 331.434418,404.142029 
	C332.999817,398.955933 336.477997,394.379608 338.498108,389.291382 
	C342.079315,380.271118 349.847198,378.975220 357.901367,378.123413 
	C372.060547,376.626007 385.458069,372.328522 397.046814,364.340729 
	C411.124329,354.637512 424.796967,344.190796 437.708252,332.986572 
	C459.710358,313.893494 484.962311,301.579010 512.837830,294.160339 
	C519.235474,292.457672 525.740723,290.872864 532.298218,290.119049 
	C544.072021,288.765625 554.851868,293.649017 565.879700,296.628510 
	C582.077271,301.004791 597.322693,308.043396 611.173340,317.213898 
	C623.878601,325.626129 635.446167,335.836914 647.086731,345.757782 
	C664.292297,360.421570 682.852417,372.396667 705.239136,377.356384 
	C710.579651,378.539490 716.128906,378.799438 721.447083,380.055634 
	C723.784668,380.607788 726.493958,382.097534 727.821960,384.005493 
	C736.401672,396.332153 742.526001,409.906555 743.565125,424.951233 
	C744.205688,434.225342 741.639954,443.420990 737.309814,452.285278 
M601.460632,452.016144 
	C608.382690,452.861725 615.284058,454.022858 622.231628,454.480377 
	C633.172546,455.200928 644.166809,456.075775 655.096008,455.687958 
	C663.158752,455.401855 671.235779,453.563477 679.152222,451.745361 
	C685.169983,450.363251 690.211670,447.131897 691.963379,440.486633 
	C693.976257,432.850739 692.319275,426.219299 686.262024,421.087891 
	C680.738892,416.408997 674.533020,417.442261 668.339294,419.706940 
	C664.290894,421.187164 660.334961,423.231567 656.151489,423.973022 
	C643.697632,426.180237 631.355225,424.298615 619.021179,422.232880 
	C600.855225,419.190430 582.597351,416.684021 564.459290,413.490936 
	C546.917236,410.402740 529.276245,410.241608 511.788727,412.405731 
	C491.049408,414.972229 470.487946,418.978912 449.852203,422.378510 
	C432.851318,425.179260 416.012634,427.420563 399.587036,419.097900 
	C394.860229,416.702850 389.055084,416.846252 384.401642,420.539093 
	C378.752533,425.022095 376.470245,430.877045 377.515625,438.178589 
	C378.590881,445.688934 383.423523,449.793488 390.009186,451.558868 
	C406.047058,455.858063 422.557495,457.434570 438.995331,455.651978 
	C465.218079,452.808228 491.380463,449.252136 517.456238,445.263916 
	C534.723328,442.622925 551.642151,445.258240 568.631836,446.909882 
	C579.342224,447.951111 589.930481,450.249542 601.460632,452.016144 
z"/>
<path fill="#FFFFFF" opacity="1.000000" stroke="none" 
	d="
M406.835144,234.160278 
	C422.505127,256.163910 422.828247,278.847687 411.122803,302.146820 
	C403.189880,317.936951 390.222351,329.239716 374.082733,334.685791 
	C351.300842,342.373169 329.488007,338.499451 310.683319,322.214294 
	C296.515350,309.944580 288.636871,294.252472 286.512390,275.995605 
	C285.059296,263.508270 289.010498,251.703094 294.961914,240.659668 
	C305.213348,221.637131 321.397217,210.158081 342.253998,206.599792 
	C359.798492,203.606598 376.925812,206.615250 391.204437,218.458649 
	C396.773346,223.077774 401.504150,228.707352 406.835144,234.160278 
M344.244629,232.331207 
	C342.661224,232.845459 341.082520,233.374847 339.493652,233.871613 
	C323.703125,238.808426 314.231903,252.132187 313.928864,268.591736 
	C313.506500,291.529846 340.412781,312.350067 361.848816,303.896973 
	C381.890594,295.993774 397.089600,274.838165 384.922119,252.525024 
	C376.318939,236.748383 362.998749,229.930801 344.244629,232.331207 
z"/>
<path fill="#FFFFFF" opacity="1.000000" stroke="none" 
	d="
M685.050354,213.984985 
	C714.882629,197.135559 753.927917,207.263733 772.015503,235.570587 
	C778.624207,245.913116 782.813660,257.085083 783.647461,269.127991 
	C784.454224,280.779602 780.886047,291.856232 775.357239,302.092407 
	C765.021729,321.228180 749.143188,333.766113 727.757568,337.415894 
	C709.584412,340.517456 692.732056,336.104767 677.700684,324.387482 
	C660.590759,311.049927 652.194214,293.304840 650.571228,272.511993 
	C649.780151,262.377808 652.707581,252.071060 657.552368,242.754410 
	C663.857117,230.630066 673.372314,221.510803 685.050354,213.984985 
M739.906128,298.474213 
	C741.081848,297.549225 742.256897,296.623383 743.433472,295.699371 
	C753.562866,287.744080 758.934204,269.846680 754.850037,257.658356 
	C749.502502,241.699936 735.002563,231.951965 716.764648,231.996307 
	C701.031189,232.034561 690.947083,240.834488 684.435730,253.955017 
	C678.233765,266.452209 679.538086,278.606079 688.509216,289.807617 
	C697.933289,301.574646 715.980652,309.991272 729.548523,303.828552 
	C732.868042,302.320770 736.073914,300.562836 739.906128,298.474213 
z"/>
<path fill="#FFFFFF" opacity="1.000000" stroke="none" 
	d="
M277.354614,734.664062 
	C264.330963,726.357544 252.502426,717.246887 244.091141,704.432495 
	C239.772079,697.852478 236.758438,690.830872 240.022964,682.902832 
	C242.289093,677.399414 246.587280,674.362915 252.744919,674.004639 
	C265.010468,673.290771 276.538849,676.819580 287.812744,680.700256 
	C303.840851,686.217407 319.523773,692.733215 335.391296,698.724060 
	C339.420593,700.245361 341.101624,703.012939 342.080170,707.164307 
	C346.479004,725.825867 352.238861,744.029297 361.851868,760.794922 
	C362.868530,762.568054 363.567932,764.523071 365.071594,767.845642 
	C332.987030,761.638794 303.945404,751.980286 277.354614,734.664062 
z"/>
<path fill="#FFFFFF" opacity="1.000000" stroke="none" 
	d="
M825.288086,705.255859 
	C816.964355,717.763916 805.525818,726.328247 793.479248,734.175171 
	C777.346436,744.683838 760.108887,752.977905 741.699951,758.603455 
	C730.177002,762.124756 718.432007,764.919739 705.416687,768.407654 
	C706.206421,765.435303 706.278992,763.937073 706.955872,762.797974 
	C717.533569,744.997620 723.588074,725.543152 728.413452,705.575134 
	C728.983215,703.217102 731.264526,700.418274 733.469238,699.441284 
	C756.758972,689.120422 780.379639,679.609375 805.482544,674.591003 
	C810.130554,673.661804 815.165283,673.759766 819.896484,674.363342 
	C827.205872,675.295776 832.958984,684.190002 830.947693,691.233887 
	C829.602051,695.946167 827.356812,700.401611 825.288086,705.255859 
z"/>
<path fill="transparent" opacity="1.000000" stroke="none" 
	d="
M601.017090,452.000061 
	C589.930481,450.249542 579.342224,447.951111 568.631836,446.909882 
	C551.642151,445.258240 534.723328,442.622925 517.456238,445.263916 
	C491.380463,449.252136 465.218079,452.808228 438.995331,455.651978 
	C422.557495,457.434570 406.047058,455.858063 390.009186,451.558868 
	C383.423523,449.793488 378.590881,445.688934 377.515625,438.178589 
	C376.470245,430.877045 378.752533,425.022095 384.401642,420.539093 
	C389.055084,416.846252 394.860229,416.702850 399.587036,419.097900 
	C416.012634,427.420563 432.851318,425.179260 449.852203,422.378510 
	C470.487946,418.978912 491.049408,414.972229 511.788727,412.405731 
	C529.276245,410.241608 546.917236,410.402740 564.459290,413.490936 
	C582.597351,416.684021 600.855225,419.190430 619.021179,422.232880 
	C631.355225,424.298615 643.697632,426.180237 656.151489,423.973022 
	C660.334961,423.231567 664.290894,421.187164 668.339294,419.706940 
	C674.533020,417.442261 680.738892,416.408997 686.262024,421.087891 
	C692.319275,426.219299 693.976257,432.850739 691.963379,440.486633 
	C690.211670,447.131897 685.169983,450.363251 679.152222,451.745361 
	C671.235779,453.563477 663.158752,455.401855 655.096008,455.687958 
	C644.166809,456.075775 633.172546,455.200928 622.231628,454.480377 
	C615.284058,454.022858 608.382690,452.861725 601.017090,452.000061 
z"/>
<path fill="transparent" opacity="1.000000" stroke="none" 
	d="
M344.678040,232.263794 
	C362.998749,229.930801 376.318939,236.748383 384.922119,252.525024 
	C397.089600,274.838165 381.890594,295.993774 361.848816,303.896973 
	C340.412781,312.350067 313.506500,291.529846 313.928864,268.591736 
	C314.231903,252.132187 323.703125,238.808426 339.493652,233.871613 
	C341.082520,233.374847 342.661224,232.845459 344.678040,232.263794 
z"/>
<path fill="transparent" opacity="1.000000" stroke="none" 
	d="
M739.619080,298.697052 
	C736.073914,300.562836 732.868042,302.320770 729.548523,303.828552 
	C715.980652,309.991272 697.933289,301.574646 688.509216,289.807617 
	C679.538086,278.606079 678.233765,266.452209 684.435730,253.955017 
	C690.947083,240.834488 701.031189,232.034561 716.764648,231.996307 
	C735.002563,231.951965 749.502502,241.699936 754.850037,257.658356 
	C758.934204,269.846680 753.562866,287.744080 743.433472,295.699371 
	C742.256897,296.623383 741.081848,297.549225 739.619080,298.697052 
z"/>
</svg>